<?xml version="1.0" encoding="UTF-8"?>
<svg version="1.1" xmlns="http://www.w3.org/2000/svg" width="32" height="32">
<path d="M0 0 C2.4375 0.6875 2.4375 0.6875 4.4375 1.6875 C4.7675 1.0275 5.0975 0.3675 5.4375 -0.3125 C7.4175 -0.3125 9.3975 -0.3125 11.4375 -0.3125 C11.47488281 0.30238281 11.51226563 0.91726562 11.55078125 1.55078125 C11.64939453 2.76314453 11.64939453 2.76314453 11.75 4 C11.80800781 4.80050781 11.86601562 5.60101563 11.92578125 6.42578125 C12.52524465 9.07531795 13.49635658 9.87295289 15.4375 11.6875 C15.125 13.875 15.125 13.875 14.4375 15.6875 C13.7775 15.6875 13.1175 15.6875 12.4375 15.6875 C12.1075 18.9875 11.7775 22.2875 11.4375 25.6875 C8.1375 25.6875 4.8375 25.6875 1.4375 25.6875 C1.4375 23.3775 1.4375 21.0675 1.4375 18.6875 C0.1175 18.6875 -1.2025 18.6875 -2.5625 18.6875 C-2.5625 20.9975 -2.5625 23.3075 -2.5625 25.6875 C-5.8625 25.6875 -9.1625 25.6875 -12.5625 25.6875 C-12.8925 22.3875 -13.2225 19.0875 -13.5625 15.6875 C-14.5525 15.3575 -15.5425 15.0275 -16.5625 14.6875 C-16.08073466 10.46723565 -13.80120322 8.76104279 -10.6875 6.0625 C-9.80320312 5.28648438 -8.91890625 4.51046875 -8.0078125 3.7109375 C-3.07062541 -0.37446651 -3.07062541 -0.37446651 0 0 Z " fill="#000000" transform="translate(16.5625,3.3125)"/>
</svg>
