<svg xmlns="http://www.w3.org/2000/svg"  viewBox="0 0 32 32" width="32px" height="32px"><path d="M 10 4 L 10 6 L 22 6 L 22 4 L 10 4 z M 22 6 L 22 8 L 24 8 L 24 6 L 22 6 z M 24 8 L 24 10 L 26 10 L 26 8 L 24 8 z M 26 10 L 26 18 L 28 18 L 28 10 L 26 10 z M 26 18 L 24 18 L 24 20 L 26 20 L 26 18 z M 24 20 L 22 20 L 22 22 L 24 22 L 24 20 z M 22 22 L 12 22 L 12 24 L 22 24 L 22 22 z M 12 24 L 10 24 L 10 26 L 12 26 L 12 24 z M 10 26 L 8 26 L 8 28 L 10 28 L 10 26 z M 8 28 L 6 28 L 6 30 L 8 30 L 8 28 z M 6 28 L 6 10 L 4 10 L 4 28 L 6 28 z M 6 10 L 8 10 L 8 8 L 6 8 L 6 10 z M 8 8 L 10 8 L 10 6 L 8 6 L 8 8 z"/></svg>