<?xml version="1.0" encoding="UTF-8"?>
<svg version="1.1" xmlns="http://www.w3.org/2000/svg" width="32" height="32">
<path d="M0 0 C4.8846525 2.26787438 7.73212562 5.1153475 10 10 C10.75381535 15.5997712 10.77303575 20.33499991 8.375 25.5 C3.80134327 30.3143755 0.6912538 32.25156236 -6 32.5 C-12.6912538 32.25156236 -15.80134327 30.3143755 -20.375 25.5 C-22.77303575 20.33499991 -22.75381535 15.5997712 -22 10 C-17.52212837 0.3553534 -9.85292056 -1.32635469 0 0 Z M-7 9 C-7 10.98 -7 12.96 -7 15 C-8.98 15 -10.96 15 -13 15 C-13 15.66 -13 16.32 -13 17 C-11.02 17 -9.04 17 -7 17 C-7 18.98 -7 20.96 -7 23 C-6.34 23 -5.68 23 -5 23 C-5 21.02 -5 19.04 -5 17 C-3.02 17 -1.04 17 1 17 C1 16.34 1 15.68 1 15 C-0.98 15 -2.96 15 -5 15 C-5 13.02 -5 11.04 -5 9 C-5.66 9 -6.32 9 -7 9 Z " fill="#000000" transform="translate(22,0)"/>
</svg>
