<?xml version="1.0" encoding="UTF-8"?>
<svg version="1.1" xmlns="http://www.w3.org/2000/svg" width="32" height="32">
<path d="M0 0 C2.4375 1.5625 2.4375 1.5625 4 4 C3.78571429 10.21428571 3.78571429 10.21428571 1 13 C1.55429687 13.38671875 2.10859375 13.7734375 2.6796875 14.171875 C3.40414063 14.69265625 4.12859375 15.2134375 4.875 15.75 C5.95394531 16.51570313 5.95394531 16.51570313 7.0546875 17.296875 C9.16294395 19.14265776 10.07375632 20.36751796 11 23 C11 24.65 11 26.3 11 28 C1.76 28 -7.48 28 -17 28 C-15.8156682 19.70967742 -15.8156682 19.70967742 -12 16 C-9.25 14.6875 -9.25 14.6875 -7 14 C-7.495 13.46375 -7.99 12.9275 -8.5 12.375 C-10.44280469 9.29889257 -10.52224493 7.58110811 -10 4 C-7.21921757 -0.06422047 -4.81255755 -0.80209293 0 0 Z " fill="#000000" transform="translate(19,2)"/>
</svg>
