<?xml version="1.0" encoding="UTF-8"?>
<svg version="1.1" xmlns="http://www.w3.org/2000/svg" width="32" height="32">
<path d="M0 0 C0.80695312 -0.01546875 1.61390625 -0.0309375 2.4453125 -0.046875 C6.01971828 -0.02328156 8.39861367 0.16997091 11.5625 1.90625 C13 4.5 13 4.5 13 14.5 C4.42 14.5 -4.16 14.5 -13 14.5 C-13 4.5 -13 4.5 -11.5625 1.90625 C-7.73373779 -0.19489999 -4.2994058 -0.08241672 0 0 Z M-10 5.5 C-10.33 7.81 -10.66 10.12 -11 12.5 C-3.74 12.5 3.52 12.5 11 12.5 C10.76875 5.88125 10.76875 5.88125 8.0625 3.5625 C2.24004309 1.54246393 -5.34565463 0.84565463 -10 5.5 Z " fill="#000000" transform="translate(16,16.5)"/>
<path d="M0 0 C2 1 2 1 3 3 C3.51981506 6.56444611 3.63102777 9.73794446 2 13 C-1.26205554 14.63102777 -4.43555389 14.51981506 -8 14 C-10 13 -10 13 -11 11 C-11.51981506 7.43555389 -11.63102777 4.26205554 -10 1 C-6.73794446 -0.63102777 -3.56444611 -0.51981506 0 0 Z M-8 4 C-8.16666667 7 -8.16666667 7 -8 10 C-6.94689723 11.27003323 -6.94689723 11.27003323 -4.5625 11.1875 C-1.83265325 11.26839983 -1.83265325 11.26839983 0 9 C0.2500773 6.45809998 0.2500773 6.45809998 0 4 C-1.11836224 2.65595225 -1.11836224 2.65595225 -4 2.875 C-6.88163776 2.65595225 -6.88163776 2.65595225 -8 4 Z " fill="#000000" transform="translate(20,1)"/>
</svg>
